Patient4_TMGait_0pt3_03_left_20_GRF.mot
version=1
nRows=64
nColumns=19
inDegrees=no
endheader
time	F1x	F1y	F1z	M1x	M1y	M1z	F2x	F2y	F2z	M2x	M2y	M2z	EC1x	EC1y	EC1z	EC2x	EC2y	EC2z
34.79	-0.12135	-2.6711	-1.4322	1.2791	-0.19076	-1.686	3.4013	673.7019	-43.9381	260.5133	40.4582	615.0861	-0.0592	0.0182	-0.0073	-0.0462	0.0165	0.9585
34.8071	-0.099868	-1.4558	-0.88419	0.74122	-0.27158	-0.84411	3.7405	689.0777	-45.6458	266.4576	41.8795	628.4268	-0.0592	0.0182	-0.0073	-0.0462	0.0165	0.9585
34.8243	-0.099718	-0.41628	-0.40968	0.27779	-0.33816	-0.10794	2.9512	710.6364	-47.4238	274.804	43.7411	647.2206	-0.0592	0.0182	-0.0073	-0.0462	0.0165	0.9585
34.8414	-0.1167	0.39274	-0.042102	-0.083926	-0.38749	0.48319	0.98065	738.372	-49.1691	285.5379	45.9678	671.4633	-0.0592	0.0182	-0.0073	-0.0462	0.0165	0.9585
34.8586	-0.14919	0.97413	0.21304	-0.3429	-0.41943	0.92572	-1.9512	771.2362	-50.804	298.2411	48.4076	700.1752	-0.0592	0.0182	-0.0073	-0.0462	0.0165	0.9585
34.8757	-0.19433	1.3536	0.3715	-0.50999	-0.43984	1.2297	-5.4531	807.1715	-52.2604	312.1102	50.8541	731.4412	-0.0592	0.0182	-0.0073	-0.0462	0.0165	0.9585
34.8929	-0.24911	1.5581	0.45764	-0.59904	-0.45917	1.4061	-9.0686	843.3236	-53.4814	326.0387	53.0891	762.6216	-0.0592	0.0182	-0.0073	-0.0462	0.0165	0.9585
34.91	-0.31557	1.6017	0.49335	-0.61927	-0.48594	1.4591	-12.357	876.404	-54.4076	338.7554	54.9017	790.6972	-0.0592	0.0182	-0.0073	-0.0462	0.0165	0.9585
34.9271	-0.39672	1.4836	0.49854	-0.57285	-0.52381	1.3771	-14.9408	903.1648	-54.9579	349.0091	56.0852	812.7167	-0.0592	0.0182	-0.0073	-0.0462	0.0165	0.9585
34.9443	-0.49025	1.1847	0.49017	-0.45634	-0.57173	1.1282	-16.5423	920.8785	-55.037	355.7533	56.4571	826.2397	-0.0592	0.0182	-0.0073	-0.0462	0.0165	0.9585
34.9614	-0.59164	0.66992	0.47919	-0.2621	-0.6247	0.66892	-17.0152	927.7111	-54.5568	358.2889	55.895	829.6734	-0.0592	0.0182	-0.0073	-0.0462	0.0165	0.9585
34.9786	-0.69544	-0.10454	0.46657	0.021037	-0.66994	-0.050797	-16.3349	922.9886	-53.4539	356.3665	54.3471	822.4983	-0.0592	0.0182	-0.0073	-0.0462	0.0165	0.9585
34.9957	-0.78204	-1.1743	0.4438	0.4025	-0.68809	-1.0694	-14.5574	907.2975	-51.7088	350.2249	51.8248	805.3297	-0.0592	0.0182	-0.0073	-0.0462	0.0165	0.9585
35.0129	-0.81363	-2.526	0.39652	0.87599	-0.65212	-2.3802	-11.7986	882.3423	-49.3749	340.5306	48.4226	779.7715	-0.0592	0.0182	-0.0073	-0.0462	0.0165	0.9585
35.03	-0.7296	-4.0586	0.30682	1.4047	-0.52426	-3.8949	-8.2255	850.6454	-46.5908	328.2562	44.3241	748.1419	-0.0592	0.0182	-0.0073	-0.0462	0.0165	0.9585
35.0471	-0.44422	-5.5372	0.15114	1.9051	-0.25158	-5.3955	-4.0321	815.18	-43.5686	314.5369	39.7793	713.1444	-0.0592	0.0182	-0.0073	-0.0462	0.0165	0.9585
35.0643	0.14944	-6.541	-0.0997	2.2299	0.23021	-6.4767	0.56922	778.9659	-40.5576	300.5178	35.0752	677.5202	-0.0592	0.0182	-0.0073	-0.0462	0.0165	0.9585
35.0814	1.1674	-6.4177	-0.4734	2.1516	0.9851	-6.4952	5.3417	744.6768	-37.8049	287.2047	30.5086	643.6982	-0.0592	0.0182	-0.0073	-0.0462	0.0165	0.9585
35.0986	2.7072	-4.2497	-0.97988	1.3464	2.0538	-4.5387	10.0501	714.3745	-35.5241	275.3647	26.3477	613.5542	-0.0592	0.0182	-0.0073	-0.0462	0.0165	0.9585
35.1157	4.8087	1.1366	-1.6003	-0.60466	3.4294	0.57059	14.4786	689.3557	-33.8727	265.4712	22.8078	588.2893	-0.0592	0.0182	-0.0073	-0.0462	0.0165	0.9585
35.1329	7.3949	11.0883	-2.2672	-4.1794	5.0142	10.1945	18.4217	670.0598	-32.9423	257.6741	20.0546	568.3565	-0.0592	0.0182	-0.0073	-0.0462	0.0165	0.9585
35.15	10.1928	26.9211	-2.8376	-9.8373	6.5648	25.6728	21.6915	656.0457	-32.7462	251.797	18.1858	553.4358	-0.0592	0.0182	-0.0073	-0.0462	0.0165	0.9585
35.1671	12.6451	49.5451	-3.0751	-17.8861	7.6392	47.97	24.1263	646.0909	-33.1999	247.382	17.2011	542.5235	-0.0592	0.0182	-0.0073	-0.0462	0.0165	0.9585
35.1843	13.8355	78.9388	-2.6457	-28.2968	7.5679	77.1729	25.6002	638.4269	-34.1147	243.7786	16.9972	534.1374	-0.0592	0.0182	-0.0073	-0.0462	0.0165	0.9585
35.2014	12.8414	113.8767	-1.1763	-40.6071	5.6407	112.2106	26.0418	631.065	-35.2178	240.2661	17.3813	526.5768	-0.0592	0.0182	-0.0073	-0.0462	0.0165	0.9585
35.2186	9.5572	152.2327	1.6678	-54.0318	1.4725	151.0733	25.4813	622.1512	-36.206	236.182	18.0983	518.2108	-0.0592	0.0182	-0.0073	-0.0462	0.0165	0.9585
35.2357	4.5811	191.1876	5.9025	-67.5659	-4.7484	190.9273	24.1033	610.1887	-36.8288	230.9985	18.8752	507.6648	-0.0592	0.0182	-0.0073	-0.0462	0.0165	0.9585
35.2529	-1.1279	227.7228	10.9432	-80.1816	-12.0756	228.6128	22.2589	594.1639	-36.9374	224.3635	19.4592	493.9424	-0.0592	0.0182	-0.0073	-0.0462	0.0165	0.9585
35.27	-6.6837	259.9021	15.979	-91.2488	-19.3436	262.02	20.3727	573.6966	-36.4906	216.1533	19.6572	476.5802	-0.0592	0.0182	-0.0073	-0.0462	0.0165	0.9585
35.2871	-11.6082	287.7555	20.3837	-100.8161	-25.7262	291.0263	18.8079	549.077	-35.5183	206.483	19.3588	455.7087	-0.0592	0.0182	-0.0073	-0.0462	0.0165	0.9585
35.3043	-15.7153	312.7306	23.8529	-109.407	-30.8322	316.9653	17.7868	521.0526	-34.0875	195.6283	18.5401	431.8902	-0.0592	0.0182	-0.0073	-0.0462	0.0165	0.9585
35.3214	-18.9348	336.6078	26.4117	-117.6376	-34.6506	341.5309	17.3668	490.5504	-32.2947	183.9298	17.2625	405.885	-0.0592	0.0182	-0.0073	-0.0462	0.0165	0.9585
35.3386	-21.2393	360.7508	28.328	-125.9566	-37.437	366.0187	17.4387	458.5149	-30.2653	171.7346	15.668	378.5105	-0.0592	0.0182	-0.0073	-0.0462	0.0165	0.9585
35.3557	-22.6821	385.7249	29.9592	-134.5249	-39.5717	390.9708	17.7721	425.8501	-28.1304	159.3726	13.941	350.578	-0.0592	0.0182	-0.0073	-0.0462	0.0165	0.9585
35.3729	-23.4063	411.3209	31.5752	-143.242	-41.3826	416.2084	18.1007	393.4436	-25.9952	147.1675	12.2536	322.8925	-0.0592	0.0182	-0.0073	-0.0462	0.0165	0.9585
35.39	-23.5829	436.8749	33.2689	-151.87	-43.0359	441.1317	18.2162	362.2187	-23.928	135.4573	10.7276	296.2731	-0.0592	0.0182	-0.0073	-0.0462	0.0165	0.9585
35.4071	-23.37	461.5308	34.9796	-160.1285	-44.5416	464.9765	18.0318	333.1337	-21.9632	124.5935	9.4144	271.5402	-0.0592	0.0182	-0.0073	-0.0462	0.0165	0.9585
35.4243	-22.9237	484.3399	36.5464	-167.7232	-45.8062	486.9084	17.593	307.1109	-20.1145	114.9133	8.3009	249.4538	-0.0592	0.0182	-0.0073	-0.0462	0.0165	0.9585
35.4414	-22.3901	504.3246	37.7532	-174.3521	-46.677	506.0642	17.0516	284.9161	-18.4015	106.6935	7.3375	230.6208	-0.0592	0.0182	-0.0073	-0.0462	0.0165	0.9585
35.4586	-21.8744	520.5921	38.3992	-179.7334	-46.9966	521.6374	16.614	267.0024	-16.8686	100.0905	6.4745	215.3845	-0.0592	0.0182	-0.0073	-0.0462	0.0165	0.9585
35.4757	-21.4348	532.5074	38.3945	-183.6563	-46.692	533.0431	16.4638	253.3376	-15.5802	95.0762	5.687	203.6965	-0.0592	0.0182	-0.0073	-0.0462	0.0165	0.9585
35.4929	-21.0997	539.8849	37.7973	-186.0533	-45.8236	540.1141	16.6871	243.2731	-14.5972	91.3888	4.9812	195.0104	-0.0592	0.0182	-0.0073	-0.0462	0.0165	0.9585
35.51	-20.858	543.1557	36.7793	-187.0614	-44.5512	543.2416	17.2119	235.566	-13.9476	88.5453	4.3968	188.3057	-0.0592	0.0182	-0.0073	-0.0462	0.0165	0.9585
35.5271	-20.6504	543.3907	35.5656	-187.0344	-43.072	543.3937	17.8253	228.5372	-13.6062	85.907	3.99	182.2353	-0.0592	0.0182	-0.0073	-0.0462	0.0165	0.9585
35.5443	-20.3943	542.1511	34.4149	-186.4968	-41.6107	541.9849	18.2547	220.3819	-13.4943	82.7968	3.8006	175.3727	-0.0592	0.0182	-0.0073	-0.0462	0.0165	0.9585
35.5614	-20.0002	541.285	33.5967	-186.0771	-40.4018	540.6902	18.2434	209.6133	-13.502	78.6663	3.8405	166.5379	-0.0592	0.0182	-0.0073	-0.0462	0.0165	0.9585
35.5786	-19.3847	542.7113	33.3509	-186.4371	-39.6527	541.2418	17.6024	195.4264	-13.5187	73.2292	4.0994	155.0929	-0.0592	0.0182	-0.0073	-0.0462	0.0165	0.9585
35.5957	-18.4909	548.1805	33.8423	-188.1916	-39.5062	545.2173	16.26	177.855	-13.4487	66.5178	4.5378	141.0569	-0.0592	0.0182	-0.0073	-0.0462	0.0165	0.9585
35.6129	-17.2991	559.018	35.1221	-191.8164	-40.0078	553.8097	14.2811	157.6549	-13.2182	58.8338	5.0816	125.0063	-0.0592	0.0182	-0.0073	-0.0462	0.0165	0.9585
35.63	-15.8417	575.9401	37.1282	-197.5807	-41.1114	567.6747	11.8306	136.0051	-12.7751	50.6338	5.6344	107.8457	-0.0592	0.0182	-0.0073	-0.0462	0.0165	0.9585
35.6471	-14.2313	598.9685	39.7216	-205.5074	-42.7202	586.8653	9.1053	114.1636	-12.0897	42.3974	6.1043	90.5497	-0.0592	0.0182	-0.0073	-0.0462	0.0165	0.9585
35.6643	-12.6705	627.4466	42.7303	-215.3735	-44.7313	610.8494	6.3019	93.1947	-11.1681	34.5246	6.4278	73.9473	-0.0592	0.0182	-0.0073	-0.0462	0.0165	0.9585
35.6814	-11.4022	660.2123	45.9858	-226.7702	-47.0537	638.652	3.6072	73.8576	-10.0412	27.2947	6.559	58.6359	-0.0592	0.0182	-0.0073	-0.0462	0.0165	0.9585
35.6986	-10.6241	695.819	49.3384	-239.1782	-49.6012	669.0203	1.1885	56.6157	-8.7497	20.8735	6.4603	44.9877	-0.0592	0.0182	-0.0073	-0.0462	0.0165	0.9585
35.7157	-10.4251	732.6902	52.6659	-252.0276	-52.2822	700.5442	-0.80154	41.6912	-7.3363	15.3368	6.1034	33.1872	-0.0592	0.0182	-0.0073	-0.0462	0.0165	0.9585
35.7329	-10.751	769.221	55.8637	-264.7442	-54.9796	731.734	-2.2181	29.1441	-5.8482	10.7006	5.4702	23.2862	-0.0592	0.0182	-0.0073	-0.0462	0.0165	0.9585
35.75	-11.4002	803.8625	58.8337	-276.7821	-57.5361	761.098	-2.9446	18.9587	-4.3481	6.9522	4.565	15.2716	-0.0592	0.0182	-0.0073	-0.0462	0.0165	0.9585
35.7671	-12.0999	835.0823	61.4871	-287.6089	-59.7803	787.1348	-2.9637	11.0933	-2.9252	4.0677	3.4544	9.1019	-0.0592	0.0182	-0.0073	-0.0462	0.0165	0.9585
35.7843	-12.5683	861.2929	63.7477	-296.6776	-61.5504	808.2881	-2.4898	5.4813	-1.698	2.0153	2.316	4.7135	-0.0592	0.0182	-0.0073	-0.0462	0.0165	0.9585
35.8014	-12.543	880.8986	65.55	-303.4409	-62.7017	823.0174	-1.8137	1.8824	-0.75548	0.70217	1.3303	1.919	-0.0592	0.0182	-0.0073	-0.0462	0.0165	0.9585
35.8186	-11.8098	892.4731	66.8257	-307.4107	-63.1031	829.9867	-1.1267	-0.12284	-0.099207	-0.027381	0.56797	0.38844	-0.0592	0.0182	-0.0073	-0.0462	0.0165	0.9585
35.8357	-10.2501	894.9518	67.501	-308.2238	-62.6553	828.2573	-0.5355	-1.0047	0.30978	-0.34617	0.033712	-0.26064	-0.0592	0.0182	-0.0073	-0.0462	0.0165	0.9585
35.8529	-7.8659	887.8363	67.5111	-305.7141	-61.3134	817.4765	-0.084232	-1.2063	0.5265	-0.41646	-0.30335	-0.38814	-0.0592	0.0182	-0.0073	-0.0462	0.0165	0.9585
35.87	-4.7492	871.4714	66.8151	-300.0086	-59.0836	798.0868	0.22202	-1.1068	0.60901	-0.37723	-0.48713	-0.30699	-0.0592	0.0182	-0.0073	-0.0462	0.0165	0.9585
